<?xml version="1.0" standalone="no"?>
<!DOCTYPE svg PUBLIC "-//W3C//DTD SVG 20010904//EN"
 "http://www.w3.org/TR/2001/REC-SVG-20010904/DTD/svg10.dtd">
<svg version="1.0" xmlns="http://www.w3.org/2000/svg"
 width="320.000000pt" height="150.000000pt" viewBox="0 0 320.000000 150.000000"
 preserveAspectRatio="xMidYMid meet">

<g transform="translate(0.000000,150.000000) scale(0.100000,-0.100000)"
fill="#000000" stroke="none">
<path d="M1170 1360 c0 -28 3 -30 35 -30 32 0 35 2 35 30 0 28 -3 30 -35 30
-32 0 -35 -2 -35 -30z"/>
<path d="M324 1315 c-3 -11 -3 -78 -2 -150 l3 -130 92 0 c82 0 94 2 116 23 33
31 41 67 24 102 -9 18 -13 45 -10 72 4 34 0 49 -16 70 -20 25 -27 27 -112 30
-83 3 -90 1 -95 -17z m147 -51 c19 -23 -1 -48 -40 -52 -30 -3 -31 -2 -31 32 0
33 2 36 29 36 16 0 34 -7 42 -16z m16 -120 c10 -27 -11 -49 -51 -52 -35 -3
-36 -2 -36 32 0 35 1 36 40 36 28 0 43 -5 47 -16z"/>
<path d="M656 1269 c-102 -81 -51 -239 77 -239 40 0 96 35 114 70 30 59 6 146
-49 176 -37 21 -111 17 -142 -7z m116 -56 c33 -29 22 -98 -19 -114 -42 -16
-83 15 -83 61 0 60 60 91 102 53z"/>
<path d="M880 1283 c1 -5 18 -33 39 -63 l38 -55 -38 -57 c-22 -31 -39 -62 -39
-68 0 -7 15 -10 37 -8 32 3 41 9 59 42 l22 39 26 -42 c23 -35 31 -41 61 -41
19 0 35 5 35 11 0 7 -15 32 -33 58 -18 25 -36 51 -40 57 -4 6 11 36 33 67 22
30 40 58 40 61 0 3 -17 6 -38 6 -33 0 -40 -5 -56 -35 -11 -19 -22 -35 -27 -35
-4 0 -16 16 -28 35 -17 30 -26 35 -56 35 -19 0 -35 -3 -35 -7z"/>
<path d="M1172 1163 l3 -128 30 0 30 0 3 128 3 127 -36 0 -36 0 3 -127z"/>
<path d="M1302 1163 l3 -128 30 0 30 0 3 83 c3 75 5 84 27 98 23 15 27 15 50
0 22 -14 24 -23 27 -98 l3 -83 30 0 30 0 3 70 c4 92 -4 132 -33 161 -31 31
-94 33 -121 3 l-18 -20 -8 20 c-5 14 -16 21 -33 21 l-26 0 3 -127z"/>
<path d="M1649 1275 c-52 -28 -74 -117 -44 -175 28 -54 107 -77 153 -44 21 14
22 14 22 -5 0 -40 -67 -64 -111 -40 -17 8 -23 7 -35 -8 -19 -26 -18 -31 16
-48 37 -19 103 -19 140 0 50 26 60 59 60 205 0 126 -1 130 -21 130 -12 0 -28
-8 -34 -17 -13 -17 -14 -17 -32 0 -23 20 -78 22 -114 2z m120 -71 c26 -33 26
-55 3 -85 -13 -15 -30 -22 -52 -22 -39 0 -60 23 -60 67 0 64 70 90 109 40z"/>
<path d="M1500 815 l0 -155 35 0 35 0 0 79 c0 87 12 108 54 97 24 -6 25 -10
28 -89 l3 -82 33 -3 32 -3 0 86 c0 89 -14 137 -45 149 -27 10 -80 7 -93 -6 -9
-9 -12 -2 -12 35 l0 47 -35 0 -35 0 0 -155z"/>
<path d="M1302 941 c-61 -21 -85 -40 -106 -86 -21 -44 -20 -70 5 -122 50 -103
206 -110 256 -12 11 22 10 25 -17 38 -28 14 -31 13 -54 -12 -30 -32 -64 -34
-100 -6 -49 38 -27 129 31 129 12 0 23 -8 26 -20 5 -20 6 -20 59 3 29 13 54
30 56 38 2 13 -74 69 -94 69 -5 -1 -33 -9 -62 -19z"/>
<path d="M430 800 l0 -140 35 0 35 0 0 50 0 50 45 0 c41 0 45 2 45 25 0 23 -4
25 -45 25 -45 0 -45 0 -45 35 l0 35 60 0 60 0 0 30 0 30 -95 0 -95 0 0 -140z"/>
<path d="M696 869 c-107 -94 -2 -258 128 -201 83 37 98 132 31 199 -28 28 -40
33 -79 33 -36 0 -52 -6 -80 -31z m118 -45 c30 -30 18 -90 -22 -105 -39 -15
-72 12 -72 59 0 21 5 43 12 50 17 17 64 15 82 -4z"/>
<path d="M947 893 c-4 -3 -7 -57 -7 -120 l0 -113 35 0 35 0 0 79 c0 91 10 107
64 97 29 -6 37 -3 46 14 10 18 8 24 -7 36 -25 19 -63 17 -86 -3 -18 -17 -19
-17 -28 0 -10 17 -40 23 -52 10z"/>
<path d="M1804 866 c-30 -30 -34 -40 -34 -86 0 -46 4 -56 34 -86 27 -27 42
-34 72 -34 21 0 45 7 56 16 16 16 18 16 24 0 4 -10 18 -16 35 -16 l29 0 0 120
c0 120 0 120 -24 120 -13 0 -27 -7 -30 -16 -5 -14 -8 -14 -28 0 -12 9 -40 16
-61 16 -31 0 -46 -7 -73 -34z m109 -27 c28 -15 37 -28 37 -58 0 -53 -62 -80
-102 -44 -18 16 -24 59 -10 79 6 9 41 33 50 34 2 0 13 -5 25 -11z"/>
<path d="M2074 887 c-2 -7 -3 -60 -2 -118 l3 -104 33 -3 32 -3 0 71 c0 82 11
110 44 110 36 0 45 -19 48 -100 l3 -75 33 -3 34 -3 -4 95 c-3 84 -6 97 -27
120 -29 31 -84 35 -114 9 -18 -17 -19 -17 -28 0 -12 20 -47 23 -55 4z"/>
<path d="M2384 866 c-28 -28 -34 -41 -34 -77 0 -63 29 -105 81 -119 37 -10 45
-9 70 10 28 20 29 20 29 2 0 -42 -64 -66 -110 -42 -15 8 -21 6 -31 -11 -18
-35 10 -54 82 -54 55 0 63 3 88 31 33 37 41 81 38 204 -2 85 -2 85 -29 88 -20
2 -28 -1 -28 -12 0 -20 -14 -20 -30 -1 -7 9 -29 15 -52 15 -32 0 -47 -7 -74
-34z m134 -44 c30 -39 2 -102 -46 -102 -47 0 -80 58 -54 96 23 34 75 38 100 6z"/>
<path d="M2692 884 c-71 -50 -67 -163 8 -208 38 -22 102 -21 131 3 22 18 22
21 9 35 -13 13 -21 14 -47 4 -37 -14 -83 1 -83 27 0 12 15 15 79 15 51 0 81 4
83 12 9 26 -6 71 -34 98 -24 25 -38 30 -77 30 -26 0 -56 -7 -69 -16z m106 -46
c22 -22 13 -28 -38 -28 -27 0 -50 4 -50 8 0 29 65 43 88 20z"/>
<path d="M730 504 c-12 -4 -14 -23 -12 -109 l3 -105 904 0 904 0 3 103 3 104
-374 6 c-396 7 -1406 7 -1431 1z m386 -59 c-4 -12 -2 -13 15 -2 16 10 21 9 28
-1 7 -11 9 -11 14 2 6 14 9 14 37 -2 24 -14 30 -24 30 -50 0 -39 -21 -40 -31
-1 -7 24 -7 24 -8 -3 -1 -41 -31 -37 -32 5 l-1 32 -7 -29 c-8 -40 -31 -46 -32
-9 l-2 28 -4 -27 c-6 -40 -33 -36 -34 5 l-1 32 -14 -32 c-14 -33 -34 -44 -34
-20 0 8 -4 7 -10 -3 -9 -13 -12 -12 -25 4 -8 11 -15 26 -15 34 0 7 -5 10 -10
7 -6 -4 -8 -10 -5 -15 10 -17 -7 -40 -28 -36 -18 2 -22 10 -22 41 0 32 4 39
23 41 12 2 22 -1 22 -7 0 -6 7 -8 15 -5 9 3 18 -1 22 -10 5 -15 7 -15 15 0 12
21 28 20 28 -1 1 -17 1 -17 11 -1 5 10 16 15 24 11 11 -4 13 -1 9 11 -4 11 -1
16 11 16 11 0 15 -5 11 -15z m177 -4 c15 -8 27 -21 27 -30 0 -11 4 -10 15 6
12 17 24 21 49 19 18 -2 38 -6 44 -10 6 -3 13 -2 17 4 12 20 20 9 20 -29 l0
-38 -55 -1 c-34 0 -61 6 -71 14 -14 13 -17 13 -22 -1 -4 -9 -19 -15 -37 -15
-29 0 -30 1 -30 51 0 28 3 49 8 47 4 -2 19 -10 35 -17z m213 4 c-4 -12 1 -14
29 -9 27 4 37 1 41 -11 6 -14 8 -14 23 -1 21 18 89 16 101 -4 8 -13 11 -12 24
5 13 16 17 17 25 6 6 -9 11 -10 15 -2 10 16 32 14 50 -5 15 -14 16 -14 16 1 0
25 24 12 29 -16 l4 -24 6 24 c11 42 31 37 31 -8 0 -39 -2 -41 -30 -41 -18 0
-33 6 -36 15 -6 14 -8 14 -18 -1 -18 -24 -59 -14 -66 15 -5 23 -7 21 -22 -17
-19 -48 -38 -55 -39 -14 0 15 -4 36 -9 47 -7 16 -9 13 -9 -17 -1 -26 -7 -40
-20 -48 -24 -12 -54 -2 -47 16 6 16 -10 28 -19 14 -11 -18 -25 -10 -25 15 0
14 -4 25 -10 25 -5 0 -10 -11 -10 -24 0 -21 -5 -25 -30 -24 -29 1 -30 3 -30
50 0 37 4 48 16 48 10 0 14 -6 10 -15z m431 -5 c4 -16 9 -18 19 -9 15 12 54 3
54 -13 0 -6 7 -5 16 3 20 17 183 22 202 7 18 -15 16 -68 -3 -68 -9 0 -15 10
-16 28 l-1 27 -7 -25 c-10 -35 -41 -40 -41 -6 0 16 -6 26 -15 26 -9 0 -15 -9
-15 -25 0 -23 -3 -25 -50 -25 -36 0 -52 4 -56 15 -4 8 -10 15 -16 15 -5 0 -6
-5 -3 -10 10 -16 -26 -24 -46 -11 -12 7 -19 7 -19 1 0 -5 -7 -10 -15 -10 -11
0 -15 12 -15 50 0 50 17 69 27 30z"/>
<path d="M1404 400 c0 -13 4 -16 10 -10 7 7 7 13 0 20 -6 6 -10 3 -10 -10z"/>
<path d="M1275 401 c-6 -11 9 -23 19 -14 9 9 7 23 -3 23 -6 0 -12 -4 -16 -9z"/>
<path d="M1360 400 c0 -5 5 -10 10 -10 6 0 10 5 10 10 0 6 -4 10 -10 10 -5 0
-10 -4 -10 -10z"/>
<path d="M1620 400 c0 -5 5 -10 10 -10 6 0 10 5 10 10 0 6 -4 10 -10 10 -5 0
-10 -4 -10 -10z"/>
<path d="M1775 400 c-3 -5 1 -10 10 -10 9 0 13 5 10 10 -3 6 -8 10 -10 10 -2
0 -7 -4 -10 -10z"/>
<path d="M2045 400 c-3 -5 1 -10 10 -10 9 0 13 5 10 10 -3 6 -8 10 -10 10 -2
0 -7 -4 -10 -10z"/>
<path d="M1662 160 c1 -28 3 -34 5 -17 5 33 20 36 26 5 4 -20 4 -19 6 5 1 17
-4 27 -13 27 -8 0 -17 6 -19 13 -3 6 -5 -8 -5 -33z"/>
<path d="M1210 155 c0 -32 3 -36 23 -33 17 2 22 10 22 33 0 23 -5 31 -22 33
-20 3 -23 -1 -23 -33z m36 0 c1 -15 -3 -24 -9 -22 -15 5 -19 47 -4 47 6 0 13
-11 13 -25z"/>
<path d="M1376 182 c-3 -5 -2 -22 3 -38 l8 -29 5 33 c4 31 -5 52 -16 34z"/>
<path d="M1422 160 c0 -19 2 -27 5 -17 2 9 2 25 0 35 -3 9 -5 1 -5 -18z"/>
<path d="M1593 183 c-18 -7 -16 -38 2 -53 12 -10 19 -10 27 -2 9 9 6 12 -11
12 -16 0 -21 5 -19 18 2 10 11 16 21 14 9 -2 17 2 17 8 0 10 -16 12 -37 3z"/>
<path d="M1284 165 c-8 -20 2 -45 18 -44 10 0 10 2 1 6 -21 8 -15 23 8 23 18
0 19 2 9 15 -7 8 -17 15 -22 15 -5 0 -11 -7 -14 -15z"/>
<path d="M1448 150 c2 -16 6 -30 8 -30 2 0 4 14 4 30 0 17 -4 30 -8 30 -5 0
-7 -13 -4 -30z"/>
<path d="M1490 170 c-17 -11 -4 -41 21 -48 8 -2 5 3 -6 12 -20 15 -20 15 3 16
14 0 22 5 20 12 -6 16 -20 19 -38 8z"/>
<path d="M1724 165 c-8 -20 13 -44 37 -42 13 1 19 9 19 27 0 20 -5 26 -25 28
-15 1 -28 -4 -31 -13z m40 -3 c2 -4 1 -14 -4 -22 -7 -11 -12 -12 -21 -3 -6 6
-8 16 -5 22 8 13 23 14 30 3z"/>
<path d="M1802 155 c0 -16 2 -22 5 -12 2 9 2 23 0 30 -3 6 -5 -1 -5 -18z"/>
<path d="M1828 155 c2 -14 8 -25 12 -25 4 0 5 11 2 25 -2 14 -8 25 -12 25 -4
0 -5 -11 -2 -25z"/>
<path d="M1876 173 c-9 -9 -7 -41 3 -47 4 -3 6 6 3 21 -4 19 -1 24 9 21 20 -7
20 -47 0 -58 -18 -11 -11 -13 13 -4 24 9 22 69 -3 71 -10 1 -22 -1 -25 -4z"/>
<path d="M1944 165 c-9 -23 3 -45 23 -44 17 1 17 2 1 6 -25 6 -22 23 3 23 18
0 19 2 9 15 -7 8 -17 15 -22 15 -5 0 -11 -7 -14 -15z"/>
</g>
</svg>
