<?xml version="1.0" encoding="UTF-8" standalone="no"?>
<svg
   xmlns:dc="http://purl.org/dc/elements/1.1/"
   xmlns:cc="http://creativecommons.org/ns#"
   xmlns:rdf="http://www.w3.org/1999/02/22-rdf-syntax-ns#"
   xmlns:svg="http://www.w3.org/2000/svg"
   xmlns="http://www.w3.org/2000/svg"
   viewBox="0 0 1122.52 793.70135"
   height="793.70135"
   width="1122.52"
   xml:space="preserve"
   id="svg2"
   version="1.1"><metadata
     id="metadata8"><rdf:RDF><cc:Work
         rdf:about=""><dc:format>image/svg+xml</dc:format><dc:type
           rdf:resource="http://purl.org/dc/dcmitype/StillImage" /></cc:Work></rdf:RDF></metadata><defs
     id="defs6"><clipPath
       id="clipPath18"
       clipPathUnits="userSpaceOnUse"><path
         id="path16"
         d="M 0,595.276 H 841.89 V 0 H 0 Z" /></clipPath></defs><g
     transform="matrix(1.3333333,0,0,-1.3333333,0,793.70133)"
     id="g10"><g
       id="g12"><g
         clip-path="url(#clipPath18)"
         id="g14"><g
           transform="translate(133.2426,337.4794)"
           id="g20"><path
             id="path22"
             style="fill:#1d70b7;fill-opacity:1;fill-rule:nonzero;stroke:none"
             d="m 0,0 c 0,0.681 0.186,1.216 0.558,1.604 0.372,0.39 0.819,0.599 1.339,0.632 h 46.547 c 0.745,0 1.304,-0.209 1.678,-0.63 0.372,-0.42 0.559,-0.985 0.559,-1.697 v -12.028 c 0,-0.55 -0.195,-1.075 -0.583,-1.576 -0.39,-0.502 -0.958,-0.752 -1.703,-0.752 H 18.822 v -15.077 h 21.84 c 0.615,0 1.134,-0.17 1.555,-0.511 0.421,-0.34 0.632,-0.884 0.632,-1.63 v -11.624 c 0,-0.552 -0.187,-1.079 -0.558,-1.581 -0.374,-0.502 -0.885,-0.754 -1.532,-0.754 H 18.822 V -67.9 c 0,-1.395 -0.746,-2.092 -2.237,-2.092 H 1.75 C 0.584,-69.83 0,-69.148 0,-67.95 Z" /></g><g
           transform="translate(206.8807,298.325)"
           id="g24"><path
             id="path26"
             style="fill:#1d70b7;fill-opacity:1;fill-rule:nonzero;stroke:none"
             d="m 0,0 c 0,-2.141 0.333,-4.143 0.998,-6.007 0.663,-1.865 1.605,-3.478 2.821,-4.839 1.216,-1.363 2.69,-2.44 4.425,-3.235 1.734,-0.795 3.688,-1.192 5.862,-1.192 2.108,0 4.013,0.397 5.714,1.192 1.702,0.795 3.145,1.872 4.33,3.235 1.183,1.361 2.09,2.974 2.723,4.839 0.632,1.864 0.949,3.866 0.949,6.007 0,2.075 -0.317,4.053 -0.949,5.934 -0.633,1.879 -1.54,3.533 -2.723,4.961 -1.185,1.427 -2.628,2.553 -4.33,3.38 -1.701,0.827 -3.606,1.241 -5.714,1.241 -2.174,0 -4.128,-0.414 -5.862,-1.241 C 6.509,13.448 5.035,12.322 3.819,10.895 2.603,9.467 1.661,7.813 0.998,5.934 0.333,4.053 0,2.075 0,0 m -17.753,0 c 0,2.983 0.381,5.853 1.143,8.608 0.762,2.756 1.832,5.309 3.211,7.661 1.377,2.351 3.031,4.491 4.96,6.421 1.93,1.928 4.078,3.575 6.445,4.936 2.366,1.362 4.92,2.416 7.661,3.161 2.739,0.747 5.6,1.119 8.584,1.119 4.41,0 8.553,-0.819 12.428,-2.456 3.874,-1.637 7.247,-3.89 10.116,-6.76 2.87,-2.87 5.14,-6.242 6.809,-10.117 C 45.274,8.698 46.11,4.507 46.11,0 c 0,-2.984 -0.382,-5.845 -1.143,-8.586 -0.762,-2.74 -1.832,-5.293 -3.211,-7.66 -1.378,-2.367 -3.032,-4.516 -4.961,-6.444 -1.929,-1.929 -4.078,-3.583 -6.444,-4.962 -2.368,-1.379 -4.905,-2.44 -7.613,-3.185 -2.707,-0.745 -5.537,-1.119 -8.487,-1.119 -2.984,0 -5.845,0.374 -8.584,1.119 -2.741,0.745 -5.295,1.806 -7.661,3.185 -2.367,1.379 -4.515,3.033 -6.445,4.962 -1.929,1.928 -3.583,4.077 -4.96,6.444 -1.379,2.367 -2.449,4.92 -3.211,7.66 -0.762,2.741 -1.143,5.602 -1.143,8.586" /></g><g
           transform="translate(262.6697,325.66)"
           id="g28"><path
             id="path30"
             style="fill:#1d70b7;fill-opacity:1;fill-rule:nonzero;stroke:none"
             d="m 0,0 c 0,0.551 0.121,1.077 0.364,1.58 0.244,0.502 0.542,0.9 0.9,1.191 0.842,0.551 1.719,0.828 2.626,0.828 h 7.344 c 0.617,0 1.103,-0.114 1.46,-0.341 0.357,-0.227 0.657,-0.519 0.899,-0.875 0.244,-0.358 0.454,-0.762 0.633,-1.216 0.178,-0.455 0.396,-0.909 0.657,-1.363 0.065,-0.129 0.195,-0.445 0.389,-0.947 0.195,-0.504 0.405,-1.055 0.632,-1.654 0.227,-0.601 0.445,-1.168 0.656,-1.703 0.212,-0.535 0.349,-0.883 0.414,-1.046 0.973,1.071 1.905,2.197 2.797,3.381 0.891,1.183 1.84,2.278 2.846,3.284 1.005,1.005 2.122,1.831 3.355,2.48 1.232,0.648 2.692,0.972 4.379,0.972 1.749,0 3.313,-0.13 4.692,-0.388 1.379,-0.26 2.683,-0.641 3.916,-1.143 1.232,-0.504 2.456,-1.143 3.672,-1.921 1.216,-0.779 2.537,-1.687 3.964,-2.725 2.238,-1.2 2.659,-2.984 1.265,-5.35 l -4.427,-7.539 c -0.648,-0.972 -1.443,-1.573 -2.383,-1.8 -0.941,-0.227 -1.963,-0.081 -3.064,0.438 -1.395,1.362 -2.813,2.375 -4.256,3.04 -1.443,0.665 -3.088,0.998 -4.936,0.998 -1.265,0 -2.377,-0.179 -3.333,-0.536 -0.956,-0.356 -1.824,-0.859 -2.601,-1.508 -0.778,-0.648 -1.509,-1.427 -2.19,-2.335 -0.68,-0.907 -1.361,-1.912 -2.042,-3.015 v -35.215 c 0,-1.231 -0.301,-2.163 -0.9,-2.795 -0.6,-0.632 -1.597,-0.949 -2.992,-0.949 H 3.793 C 1.264,-58.172 0,-56.925 0,-54.428 Z" /></g><g
           transform="translate(148.9347,385.8488)"
           id="g32"><path
             id="path34"
             style="fill:#1d70b7;fill-opacity:1;fill-rule:nonzero;stroke:none"
             d="m 0,0 c 0,1.038 -0.2,2.077 -0.599,3.116 -0.399,1.038 -0.955,1.964 -1.667,2.778 -0.711,0.813 -1.561,1.48 -2.55,1.999 -0.989,0.519 -2.056,0.779 -3.202,0.779 H -21.76 V -8.672 h 13.742 c 1.146,0 2.204,0.241 3.176,0.727 0.972,0.484 1.822,1.133 2.55,1.947 0.73,0.813 1.294,1.739 1.693,2.778 C -0.2,-2.181 0,-1.108 0,0 m -2.753,30.171 c 0,1.039 -0.191,2.008 -0.573,2.908 -0.381,0.9 -0.921,1.696 -1.614,2.389 -0.695,0.692 -1.528,1.238 -2.5,1.635 -0.972,0.398 -2.03,0.598 -3.175,0.598 H -21.76 v -15.06 h 10.988 c 1.18,0 2.265,0.182 3.254,0.546 0.989,0.363 1.832,0.882 2.526,1.558 0.694,0.675 1.241,1.471 1.64,2.388 0.399,0.917 0.599,1.93 0.599,3.038 m -39.103,20.46 c 0,0.727 0.199,1.307 0.598,1.74 0.397,0.432 0.96,0.649 1.686,0.649 h 34.483 c 3.046,0 5.919,-0.58 8.619,-1.74 2.7,-1.16 5.064,-2.752 7.089,-4.777 2.026,-2.025 3.626,-4.398 4.804,-7.114 1.176,-2.719 1.766,-5.635 1.766,-8.751 0,-2.596 -0.409,-5.011 -1.221,-7.244 -0.813,-2.233 -1.965,-4.232 -3.454,-5.998 2.493,-2.285 4.466,-5.003 5.921,-8.153 1.454,-3.151 2.18,-6.491 2.18,-10.022 0,-3.151 -0.606,-6.137 -1.817,-8.958 -1.212,-2.821 -2.848,-5.297 -4.908,-7.426 -2.06,-2.128 -4.466,-3.817 -7.218,-5.063 -2.752,-1.246 -5.651,-1.869 -8.699,-1.869 h -37.545 c -0.691,0 -1.246,0.181 -1.66,0.545 -0.416,0.363 -0.624,0.925 -0.624,1.688 z" /></g><g
           transform="translate(195.1495,394.677)"
           id="g36"><path
             id="path38"
             style="fill:#1d70b7;fill-opacity:1;fill-rule:nonzero;stroke:none"
             d="m 0,0 c 0,-2.286 0.355,-4.423 1.065,-6.414 0.709,-1.991 1.714,-3.712 3.012,-5.167 1.299,-1.453 2.873,-2.605 4.725,-3.453 1.852,-0.849 3.938,-1.272 6.258,-1.272 2.251,0 4.285,0.423 6.101,1.272 1.818,0.848 3.358,2 4.623,3.453 1.263,1.455 2.232,3.176 2.907,5.167 0.675,1.991 1.013,4.128 1.013,6.414 0,2.215 -0.338,4.326 -1.013,6.335 -0.675,2.007 -1.644,3.773 -2.907,5.297 -1.265,1.523 -2.805,2.726 -4.623,3.609 -1.816,0.883 -3.85,1.324 -6.101,1.324 -2.32,0 -4.406,-0.441 -6.258,-1.324 C 6.95,14.358 5.376,13.155 4.077,11.632 2.779,10.108 1.774,8.342 1.065,6.335 0.355,4.326 0,2.215 0,0 m -18.955,0 c 0,3.184 0.407,6.249 1.221,9.191 0.814,2.942 1.956,5.669 3.428,8.179 1.471,2.509 3.236,4.795 5.296,6.855 2.06,2.059 4.354,3.817 6.881,5.27 2.527,1.455 5.253,2.579 8.18,3.376 2.924,0.796 5.978,1.195 9.164,1.195 4.709,0 9.132,-0.875 13.269,-2.623 4.137,-1.749 7.737,-4.155 10.801,-7.218 3.064,-3.064 5.487,-6.665 7.27,-10.801 C 48.337,9.286 49.23,4.811 49.23,0 c 0,-3.186 -0.408,-6.241 -1.22,-9.166 -0.814,-2.926 -1.957,-5.652 -3.429,-8.179 -1.471,-2.528 -3.237,-4.822 -5.296,-6.88 -2.06,-2.06 -4.355,-3.826 -6.881,-5.298 -2.528,-1.472 -5.237,-2.605 -8.127,-3.401 -2.891,-0.795 -5.912,-1.194 -9.062,-1.194 -3.186,0 -6.24,0.399 -9.164,1.194 -2.927,0.796 -5.653,1.929 -8.18,3.401 -2.527,1.472 -4.821,3.238 -6.881,5.298 -2.06,2.058 -3.825,4.352 -5.296,6.88 -1.472,2.527 -2.614,5.253 -3.428,8.179 -0.814,2.925 -1.221,5.98 -1.221,9.166" /></g><g
           transform="translate(245.0029,363.7264)"
           id="g40"><path
             id="path42"
             style="fill:#1d70b7;fill-opacity:1;fill-rule:nonzero;stroke:none"
             d="M 0,0 C -0.104,0.485 -0.017,0.961 0.261,1.428 0.536,1.895 0.779,2.286 0.987,2.596 L 21.655,31.729 2.078,59.564 c -0.347,0.449 -0.641,0.934 -0.883,1.453 -0.243,0.52 -0.337,0.995 -0.285,1.429 0.051,0.432 0.275,0.795 0.675,1.09 0.397,0.294 1.063,0.441 1.999,0.441 H 19.89 c 0.588,0 1.099,-0.251 1.531,-0.753 0.433,-0.502 0.927,-1.151 1.48,-1.947 L 32.82,45.231 c 0.657,0.934 1.419,2.12 2.284,3.557 0.866,1.436 1.757,2.925 2.676,4.466 0.915,1.54 1.799,3.038 2.648,4.492 0.847,1.454 1.583,2.682 2.206,3.687 0.588,0.9 1.134,1.549 1.637,1.948 0.501,0.397 1.098,0.596 1.791,0.596 h 16.462 c 0.415,0 0.805,-0.087 1.167,-0.259 0.365,-0.174 0.65,-0.416 0.858,-0.727 0.208,-0.312 0.294,-0.675 0.259,-1.091 -0.035,-0.415 -0.259,-0.866 -0.675,-1.35 L 43.829,31.885 64.03,3.636 c 0.416,-0.59 0.769,-1.213 1.065,-1.87 0.292,-0.658 0.423,-1.265 0.388,-1.818 -0.035,-0.554 -0.285,-1.013 -0.752,-1.376 -0.468,-0.364 -1.256,-0.545 -2.364,-0.545 H 45.543 c -1.559,0 -2.718,0.9 -3.48,2.7 L 32.82,17.345 23.472,0.52 c -0.381,-0.762 -0.865,-1.369 -1.453,-1.818 -0.59,-0.45 -1.161,-0.675 -1.714,-0.675 H 2.234 c -0.486,0 -0.901,0.103 -1.247,0.311 -0.347,0.208 -0.641,0.589 -0.883,1.142 z" /></g><g
           transform="translate(319.677,423.6536)"
           id="g44"><path
             id="path46"
             style="fill:#1d70b7;fill-opacity:1;fill-rule:nonzero;stroke:none"
             d="M 0,0 C 0,1.107 0.312,2.059 0.936,2.856 1.559,3.651 2.528,4.05 3.844,4.05 h 11.891 c 0.416,0 0.866,-0.095 1.35,-0.286 0.485,-0.19 0.936,-0.467 1.35,-0.83 C 18.851,2.57 19.206,2.146 19.5,1.662 19.794,1.176 19.942,0.623 19.942,0 v -57.902 c 0,-1.315 -0.364,-2.31 -1.091,-2.985 -0.727,-0.675 -1.766,-1.013 -3.116,-1.013 H 3.844 C 1.281,-61.9 0,-60.569 0,-57.902 Z m 0,26.276 c 0,1.454 0.312,2.484 0.936,3.09 0.623,0.606 1.592,0.909 2.908,0.909 h 12.047 c 1.212,0 2.189,-0.303 2.934,-0.909 0.744,-0.606 1.117,-1.636 1.117,-3.09 V 16.15 c 0,-0.416 -0.096,-0.866 -0.286,-1.35 C 19.465,14.314 19.197,13.847 18.851,13.398 18.505,12.947 18.08,12.575 17.579,12.281 17.076,11.987 16.514,11.84 15.891,11.84 H 3.844 C 1.281,11.84 0,13.276 0,16.15 Z" /></g><g
           transform="translate(353.4312,426.7749)"
           id="g48"><path
             id="path50"
             style="fill:#1d70b7;fill-opacity:1;fill-rule:nonzero;stroke:none"
             d="m 0,0 c 0.451,0.38 0.926,0.623 1.429,0.727 0.5,0.104 0.978,0.156 1.426,0.156 h 7.844 c 0.622,0 1.158,-0.113 1.609,-0.337 0.448,-0.226 0.832,-0.529 1.143,-0.909 0.311,-0.38 0.561,-0.811 0.753,-1.295 0.189,-0.484 0.372,-0.983 0.545,-1.501 l 1.609,-6.628 c 0.518,1.069 1.274,2.287 2.258,3.65 0.988,1.363 2.243,2.642 3.767,3.832 1.524,1.192 3.331,2.192 5.427,3.004 2.094,0.811 4.526,1.216 7.296,1.216 3.946,0 7.53,-0.759 10.748,-2.278 3.221,-1.519 5.963,-3.59 8.231,-6.214 2.267,-2.625 4.025,-5.69 5.272,-9.198 1.246,-3.509 1.868,-7.253 1.868,-11.234 v -34.014 c 0,-1.315 -0.284,-2.31 -0.857,-2.985 -0.57,-0.675 -1.478,-1.014 -2.724,-1.014 H 45.646 c -1.487,0 -2.511,0.252 -3.062,0.753 -0.555,0.501 -0.832,1.481 -0.832,2.935 v 33.806 c 0,1.488 -0.338,2.898 -1.012,4.232 -0.676,1.332 -1.566,2.509 -2.675,3.531 -1.11,1.021 -2.362,1.826 -3.764,2.415 -1.402,0.588 -2.831,0.883 -4.284,0.883 -1.247,0 -2.521,-0.278 -3.819,-0.831 -1.298,-0.554 -2.493,-1.324 -3.583,-2.311 -1.088,-0.987 -2.009,-2.147 -2.752,-3.479 -0.744,-1.334 -1.167,-2.779 -1.271,-4.337 v -33.754 c 0,-0.59 -0.113,-1.178 -0.338,-1.766 -0.226,-0.588 -0.564,-1.037 -1.012,-1.35 -0.451,-0.277 -0.875,-0.468 -1.274,-0.571 -0.396,-0.104 -0.856,-0.156 -1.374,-0.156 H 2.855 c -1.487,0 -2.559,0.365 -3.218,1.091 -0.658,0.727 -0.987,1.696 -0.987,2.908 v 58.071 c 0,0.656 0.146,1.259 0.442,1.812 0.292,0.553 0.701,0.984 1.219,1.295 z" /></g><g
           transform="translate(444.1512,394.8842)"
           id="g52"><path
             id="path54"
             style="fill:#1d70b7;fill-opacity:1;fill-rule:nonzero;stroke:none"
             d="m 0,0 c 0,-2.32 0.355,-4.475 1.065,-6.465 0.709,-1.991 1.722,-3.713 3.038,-5.167 1.315,-1.454 2.898,-2.597 4.751,-3.427 1.851,-0.832 3.904,-1.247 6.154,-1.247 2.216,0 4.302,0.39 6.258,1.169 1.955,0.779 3.66,1.86 5.115,3.245 1.454,1.385 2.622,3.012 3.505,4.882 0.883,1.869 1.375,3.894 1.481,6.075 v 1.714 c -0.106,2.111 -0.598,4.11 -1.481,5.998 -0.883,1.887 -2.051,3.548 -3.505,4.985 -1.455,1.436 -3.16,2.579 -5.115,3.428 -1.956,0.848 -4.042,1.272 -6.258,1.272 -2.25,0 -4.303,-0.441 -6.154,-1.324 C 7.001,14.255 5.418,13.069 4.103,11.581 2.787,10.091 1.774,8.343 1.065,6.335 0.355,4.327 0,2.215 0,0 m 29.704,-30.845 c 0.381,1.176 0.562,2.518 0.546,4.024 -0.019,1.505 -0.026,3.038 -0.026,4.595 -1.006,-1.073 -2.025,-2.206 -3.064,-3.401 -1.04,-1.194 -2.19,-2.304 -3.455,-3.323 -1.263,-1.022 -2.69,-1.862 -4.283,-2.519 -1.593,-0.658 -3.445,-0.987 -5.556,-0.987 -4.674,0 -9.002,0.795 -12.982,2.389 -3.983,1.592 -7.427,3.817 -10.335,6.672 -2.908,2.857 -5.176,6.276 -6.802,10.257 -1.629,3.981 -2.441,8.36 -2.441,13.138 0,4.742 0.812,9.182 2.441,13.32 1.626,4.137 3.894,7.737 6.802,10.801 2.908,3.065 6.352,5.47 10.335,7.219 3.98,1.748 8.308,2.622 12.982,2.622 2.146,0 4.075,-0.329 5.79,-0.986 1.714,-0.659 3.271,-1.507 4.673,-2.545 1.403,-1.038 2.683,-2.207 3.844,-3.505 1.158,-1.298 2.258,-2.589 3.297,-3.869 l 1.973,6.179 c 0.208,0.589 0.398,1.125 0.572,1.61 0.172,0.485 0.397,0.892 0.675,1.221 0.275,0.328 0.63,0.579 1.063,0.752 0.433,0.173 0.995,0.26 1.688,0.26 h 7.738 c 0.381,0 0.822,-0.052 1.324,-0.155 0.501,-0.105 0.943,-0.347 1.324,-0.728 0.484,-0.381 0.849,-0.796 1.091,-1.245 0.242,-0.451 0.364,-1.022 0.364,-1.715 v -52.864 c 0,-5.401 -0.884,-10.211 -2.648,-14.437 -1.766,-4.223 -4.181,-7.789 -7.245,-10.697 -3.064,-2.908 -6.691,-5.123 -10.879,-6.647 -4.189,-1.523 -8.69,-2.285 -13.502,-2.285 -1.869,0 -3.878,0.164 -6.024,0.493 -2.147,0.33 -4.283,0.823 -6.414,1.48 -2.128,0.658 -4.188,1.499 -6.178,2.519 -1.992,1.022 -3.748,2.207 -5.272,3.557 -0.414,0.313 -0.779,0.675 -1.089,1.091 -0.313,0.415 -0.529,0.883 -0.65,1.402 -0.121,0.52 -0.121,1.082 0,1.688 0.121,0.605 0.406,1.238 0.857,1.896 l 4.933,6.802 c 0.899,0.97 1.748,1.488 2.545,1.558 0.795,0.07 1.799,-0.346 3.011,-1.246 0.865,-0.832 1.86,-1.498 2.986,-1.999 1.125,-0.501 2.286,-0.901 3.48,-1.195 1.193,-0.294 2.371,-0.484 3.531,-0.571 1.159,-0.087 2.207,-0.13 3.142,-0.13 1.557,0 3.184,0.208 4.881,0.624 1.696,0.414 3.279,1.03 4.751,1.843 1.472,0.814 2.77,1.809 3.895,2.985 1.124,1.178 1.895,2.528 2.311,4.052" /></g><g
           transform="translate(422.06,323.4731)"
           id="g56"><path
             id="path58"
             style="fill:#1d70b7;fill-opacity:1;fill-rule:nonzero;stroke:none"
             d="m 0,0 c 0.618,0.908 1.367,1.81 2.247,2.702 0.878,0.893 1.911,1.688 3.101,2.386 1.187,0.698 2.539,1.267 4.053,1.704 1.513,0.438 3.231,0.658 5.151,0.658 3.713,0 7.024,-0.714 9.939,-2.143 2.913,-1.428 5.388,-3.377 7.424,-5.844 2.033,-2.468 3.581,-5.351 4.638,-8.649 1.058,-3.3 1.588,-6.822 1.588,-10.565 v -31.988 c 0,-1.236 -0.27,-2.172 -0.806,-2.807 -0.537,-0.635 -1.392,-0.953 -2.564,-0.953 H 23.489 c -1.4,0 -2.36,0.237 -2.88,0.708 -0.521,0.472 -0.782,1.393 -0.782,2.76 v 32.28 c 0,1.399 -0.268,2.701 -0.805,3.906 -0.538,1.205 -1.263,2.254 -2.174,3.151 -0.911,0.894 -1.977,1.595 -3.198,2.099 -1.221,0.505 -2.515,0.757 -3.883,0.757 -1.171,0 -2.319,-0.237 -3.442,-0.708 C 5.201,-11.017 4.191,-11.685 3.297,-12.548 2.4,-13.41 1.652,-14.445 1.05,-15.649 0.447,-16.854 0.097,-18.189 0,-19.654 v -32.231 c 0,-0.554 -0.106,-1.108 -0.317,-1.661 -0.212,-0.553 -0.53,-0.975 -0.953,-1.269 -0.424,-0.261 -0.822,-0.44 -1.196,-0.538 -0.374,-0.097 -0.805,-0.146 -1.294,-0.146 h -11.037 c -1.4,0 -2.409,0.343 -3.028,1.026 -0.619,0.684 -0.927,1.595 -0.927,2.734 v 39.753 0.341 14.525 0.245 18.117 c 0,1.106 0.308,2.003 0.927,2.687 0.619,0.683 1.628,1.024 3.028,1.024 H -3.76 c 0.748,0 1.579,-0.261 2.49,-0.781 0.423,-0.292 0.741,-0.716 0.953,-1.269 C -0.106,22.348 0,21.828 0,21.339 Z" /></g><g
           transform="translate(487.6449,298.9363)"
           id="g60"><path
             id="path62"
             style="fill:#1d70b7;fill-opacity:1;fill-rule:nonzero;stroke:none"
             d="m 0,0 c 0,-2.149 0.334,-4.16 1.002,-6.031 0.666,-1.873 1.619,-3.492 2.857,-4.859 1.236,-1.368 2.725,-2.45 4.468,-3.248 1.74,-0.798 3.669,-1.197 5.787,-1.197 2.181,0 4.207,0.399 6.08,1.197 1.871,0.798 3.499,1.88 4.883,3.248 1.383,1.367 2.466,2.986 3.247,4.859 0.782,1.871 1.172,3.882 1.172,6.031 0,2.083 -0.39,4.069 -1.172,5.958 -0.781,1.887 -1.864,3.548 -3.247,4.981 -1.384,1.433 -3.012,2.563 -4.883,3.394 -1.873,0.83 -3.899,1.245 -6.08,1.245 -2.118,0 -4.047,-0.415 -5.787,-1.245 C 6.584,13.502 5.095,12.372 3.859,10.939 2.621,9.506 1.668,7.845 1.002,5.958 0.334,4.069 0,2.083 0,0 m 48.104,-27.348 c 0,-0.555 -0.099,-1.083 -0.294,-1.588 -0.195,-0.504 -0.522,-0.903 -0.977,-1.196 -0.359,-0.358 -0.781,-0.586 -1.27,-0.684 -0.489,-0.097 -0.911,-0.146 -1.269,-0.146 h -9.621 c -0.683,0 -1.238,0.089 -1.661,0.268 -0.422,0.179 -0.765,0.431 -1.024,0.758 -0.262,0.325 -0.482,0.724 -0.661,1.196 -0.179,0.472 -0.365,0.985 -0.56,1.538 l -1.417,3.662 c -0.879,-0.878 -1.84,-1.814 -2.882,-2.807 -1.041,-0.994 -2.189,-1.912 -3.441,-2.759 -1.254,-0.847 -2.614,-1.555 -4.078,-2.124 -1.466,-0.57 -3.028,-0.855 -4.689,-0.855 -2.963,0 -5.803,0.375 -8.521,1.123 -2.72,0.748 -5.259,1.814 -7.619,3.198 -2.361,1.384 -4.501,3.045 -6.422,4.982 -1.922,1.936 -3.574,4.094 -4.957,6.47 -1.384,2.377 -2.45,4.941 -3.198,7.692 -0.749,2.751 -1.123,5.624 -1.123,8.62 0,4.525 0.829,8.733 2.49,12.624 1.661,3.89 3.923,7.276 6.788,10.158 2.864,2.881 6.234,5.144 10.109,6.787 3.874,1.644 8.025,2.466 12.453,2.466 2.018,0 3.875,-0.301 5.567,-0.903 1.692,-0.603 3.231,-1.392 4.615,-2.368 1.383,-0.977 2.637,-2.084 3.76,-3.322 1.124,-1.236 2.125,-2.49 3.004,-3.76 l 1.904,5.91 c 0.325,0.814 0.594,1.473 0.807,1.977 0.21,0.505 0.439,0.88 0.683,1.124 0.244,0.243 0.544,0.406 0.903,0.488 0.358,0.08 0.862,0.122 1.514,0.122 h 7.277 c 0.358,0 0.78,-0.049 1.269,-0.146 0.489,-0.098 0.911,-0.327 1.27,-0.684 0.455,-0.359 0.782,-0.765 0.977,-1.221 0.195,-0.457 0.294,-0.977 0.294,-1.563 z" /></g><g
           transform="translate(548.7376,329.1216)"
           id="g64"><path
             id="path66"
             style="fill:#1d70b7;fill-opacity:1;fill-rule:nonzero;stroke:none"
             d="M 0,0 C 0.423,0.358 0.871,0.586 1.343,0.684 1.814,0.781 2.263,0.83 2.685,0.83 h 7.375 c 0.586,0 1.091,-0.106 1.513,-0.317 0.423,-0.212 0.783,-0.497 1.075,-0.854 0.294,-0.357 0.529,-0.764 0.708,-1.218 0.179,-0.454 0.35,-0.924 0.513,-1.411 l 1.515,-6.233 c 0.487,1.004 1.196,2.149 2.123,3.431 0.929,1.283 2.108,2.485 3.541,3.605 1.433,1.12 3.133,2.061 5.104,2.823 1.968,0.764 4.255,1.145 6.86,1.145 3.712,0 7.082,-0.713 10.109,-2.142 3.028,-1.429 5.609,-3.377 7.741,-5.845 2.132,-2.467 3.784,-5.35 4.956,-8.649 1.172,-3.3 1.758,-6.822 1.758,-10.564 v -31.988 c 0,-1.237 -0.268,-2.173 -0.805,-2.807 -0.537,-0.635 -1.391,-0.953 -2.563,-0.953 H 42.927 c -1.4,0 -2.362,0.236 -2.882,0.708 -0.522,0.471 -0.781,1.392 -0.781,2.759 v 31.792 c 0,1.4 -0.318,2.727 -0.953,3.981 -0.635,1.252 -1.473,2.36 -2.514,3.32 -1.044,0.96 -2.223,1.716 -3.541,2.271 -1.318,0.553 -2.662,0.829 -4.029,0.829 -1.173,0 -2.369,-0.26 -3.59,-0.781 -1.221,-0.521 -2.344,-1.245 -3.37,-2.173 -1.025,-0.927 -1.889,-2.019 -2.588,-3.272 -0.7,-1.253 -1.099,-2.612 -1.196,-4.078 v -31.742 c 0,-0.555 -0.106,-1.108 -0.317,-1.661 -0.212,-0.553 -0.53,-0.976 -0.953,-1.27 -0.424,-0.26 -0.822,-0.44 -1.196,-0.537 -0.374,-0.097 -0.806,-0.146 -1.294,-0.146 H 2.685 c -1.4,0 -2.408,0.342 -3.027,1.026 -0.619,0.683 -0.928,1.595 -0.928,2.734 v 54.611 c 0,0.617 0.138,1.184 0.415,1.704 0.276,0.519 0.66,0.926 1.147,1.218 z" /></g><g
           transform="translate(634.0519,299.1312)"
           id="g68"><path
             id="path70"
             style="fill:#1d70b7;fill-opacity:1;fill-rule:nonzero;stroke:none"
             d="m 0,0 c 0,-2.181 0.334,-4.208 1.002,-6.08 0.666,-1.873 1.619,-3.492 2.857,-4.859 1.236,-1.367 2.725,-2.441 4.468,-3.224 1.741,-0.781 3.671,-1.172 5.787,-1.172 2.083,0 4.045,0.367 5.885,1.099 1.838,0.734 3.442,1.75 4.81,3.052 1.367,1.303 2.466,2.833 3.296,4.591 0.831,1.758 1.294,3.663 1.392,5.715 v 1.61 c -0.098,1.986 -0.561,3.866 -1.392,5.642 -0.83,1.773 -1.929,3.335 -3.296,4.688 -1.368,1.35 -2.972,2.424 -4.81,3.223 -1.84,0.796 -3.802,1.196 -5.885,1.196 -2.116,0 -4.046,-0.416 -5.787,-1.245 C 6.584,13.406 5.095,12.29 3.859,10.89 2.621,9.49 1.668,7.847 1.002,5.958 0.334,4.069 0,2.083 0,0 m 27.934,-29.007 c 0.358,1.106 0.529,2.368 0.513,3.784 -0.017,1.416 -0.024,2.857 -0.024,4.321 -0.946,-1.008 -1.905,-2.074 -2.882,-3.198 -0.977,-1.123 -2.059,-2.166 -3.248,-3.125 -1.188,-0.961 -2.531,-1.751 -4.028,-2.368 -1.499,-0.619 -3.24,-0.929 -5.226,-0.929 -4.394,0 -8.465,0.748 -12.208,2.247 -3.745,1.497 -6.984,3.589 -9.719,6.274 -2.734,2.687 -4.868,5.901 -6.397,9.645 -1.531,3.744 -2.295,7.864 -2.295,12.356 0,4.461 0.764,8.636 2.295,12.526 1.529,3.891 3.663,7.277 6.397,10.158 2.735,2.882 5.974,5.144 9.719,6.788 3.743,1.643 7.814,2.466 12.208,2.466 2.019,0 3.833,-0.31 5.445,-0.927 1.612,-0.619 3.077,-1.416 4.395,-2.393 1.32,-0.978 2.523,-2.077 3.615,-3.297 1.089,-1.221 2.124,-2.433 3.101,-3.638 l 1.856,5.811 c 0.194,0.553 0.374,1.058 0.537,1.515 0.162,0.456 0.374,0.837 0.635,1.148 0.259,0.308 0.593,0.544 1,0.707 0.407,0.162 0.935,0.244 1.587,0.244 h 7.277 c 0.358,0 0.773,-0.049 1.245,-0.146 0.471,-0.098 0.887,-0.327 1.245,-0.684 0.456,-0.359 0.798,-0.749 1.026,-1.172 0.228,-0.424 0.342,-0.961 0.342,-1.612 V -22.22 c 0,-5.079 -0.831,-9.603 -2.49,-13.576 -1.661,-3.972 -3.932,-7.325 -6.813,-10.061 -2.882,-2.734 -6.292,-4.817 -10.231,-6.25 -3.939,-1.433 -8.172,-2.149 -12.697,-2.149 -1.758,0 -3.647,0.154 -5.666,0.464 -2.019,0.309 -4.028,0.774 -6.031,1.391 -2.001,0.619 -3.939,1.41 -5.81,2.369 -1.873,0.961 -3.525,2.076 -4.958,3.346 -0.39,0.293 -0.732,0.634 -1.024,1.026 -0.294,0.389 -0.498,0.829 -0.611,1.318 -0.114,0.488 -0.114,1.017 0,1.587 0.113,0.569 0.381,1.164 0.805,1.783 l 4.64,6.396 c 0.846,0.913 1.644,1.4 2.393,1.466 0.748,0.066 1.692,-0.325 2.831,-1.172 0.814,-0.782 1.75,-1.408 2.809,-1.88 1.057,-0.471 2.149,-0.847 3.273,-1.123 1.122,-0.277 2.229,-0.456 3.32,-0.538 1.09,-0.081 2.076,-0.121 2.954,-0.121 1.465,0 2.995,0.195 4.591,0.586 1.595,0.389 3.084,0.968 4.468,1.733 1.384,0.766 2.605,1.701 3.662,2.808 1.058,1.107 1.783,2.377 2.174,3.81" /></g><g
           transform="translate(720.5871,316.0766)"
           id="g72"><path
             id="path74"
             style="fill:#1d70b7;fill-opacity:1;fill-rule:nonzero;stroke:none"
             d="M 0,0 C -1.27,0 -2.499,-0.252 -3.687,-0.757 -4.875,-1.261 -5.99,-1.937 -7.031,-2.783 -8.074,-3.63 -9.01,-4.59 -9.84,-5.664 c -0.829,-1.075 -1.506,-2.165 -2.026,-3.273 h 24.954 c -0.684,1.271 -1.424,2.443 -2.221,3.516 -0.798,1.075 -1.709,2.019 -2.735,2.833 C 7.106,-1.774 5.934,-1.139 4.615,-0.683 3.297,-0.228 1.758,0 0,0 m 23.491,-40.68 c -2.866,-2.636 -6.089,-4.695 -9.669,-6.177 -3.583,-1.482 -7.375,-2.222 -11.38,-2.222 -4.461,0 -8.677,0.815 -12.648,2.441 -3.972,1.628 -7.456,3.883 -10.451,6.765 -2.996,2.881 -5.372,6.275 -7.13,10.182 -1.758,3.906 -2.636,8.155 -2.636,12.746 0,2.864 0.348,5.641 1.049,8.326 0.7,2.687 1.692,5.202 2.979,7.546 1.286,2.344 2.848,4.499 4.688,6.469 1.839,1.97 3.899,3.656 6.177,5.056 2.28,1.399 4.755,2.49 7.424,3.271 2.67,0.782 5.485,1.172 8.448,1.172 2.703,0 5.324,-0.358 7.863,-1.073 2.539,-0.718 4.925,-1.727 7.154,-3.029 2.23,-1.303 4.273,-2.865 6.129,-4.687 1.855,-1.825 3.45,-3.819 4.785,-5.983 1.336,-2.166 2.369,-4.478 3.103,-6.935 0.732,-2.459 1.097,-4.989 1.097,-7.594 0,-1.693 -0.024,-3.077 -0.073,-4.151 -0.049,-1.074 -0.301,-1.929 -0.756,-2.564 -0.456,-0.635 -1.214,-1.074 -2.272,-1.318 -1.057,-0.244 -2.612,-0.367 -4.664,-0.367 h -35.16 c 0.324,-2.083 0.985,-3.826 1.978,-5.224 0.993,-1.402 2.14,-2.516 3.443,-3.346 1.301,-0.83 2.685,-1.424 4.151,-1.783 1.464,-0.358 2.848,-0.537 4.151,-0.537 1.171,0 2.376,0.122 3.614,0.367 1.236,0.244 2.433,0.569 3.589,0.976 1.155,0.407 2.212,0.88 3.174,1.417 0.96,0.537 1.734,1.099 2.32,1.685 0.52,0.423 0.968,0.739 1.342,0.951 0.374,0.212 0.773,0.319 1.197,0.319 0.423,0 0.854,-0.148 1.294,-0.44 0.44,-0.294 0.935,-0.717 1.49,-1.27 l 5.176,-5.86 c 0.358,-0.425 0.586,-0.806 0.683,-1.148 0.099,-0.343 0.148,-0.692 0.148,-1.051 0,-0.65 -0.179,-1.212 -0.538,-1.685 -0.358,-0.471 -0.782,-0.887 -1.269,-1.245" /></g><g
           transform="translate(395.0124,291.4438)"
           id="g76"><path
             id="path78"
             style="fill:#1d1d1b;fill-opacity:1;fill-rule:nonzero;stroke:none"
             d="m 0,0 -13.525,5.581 c -0.611,0.224 -1.098,0.26 -1.461,0.105 -0.365,-0.159 -0.696,-0.545 -0.996,-1.164 -0.687,-1.876 -1.672,-3.623 -2.954,-5.243 -1.282,-1.619 -2.824,-3.009 -4.632,-4.172 -2.245,-1.446 -4.583,-2.352 -7.019,-2.718 -2.436,-0.368 -4.809,-0.26 -7.121,0.323 -2.311,0.583 -4.48,1.607 -6.506,3.071 -2.029,1.462 -3.762,3.318 -5.208,5.564 -1.444,2.243 -2.421,4.597 -2.921,7.062 -0.503,2.465 -0.546,4.877 -0.129,7.237 0.417,2.358 1.297,4.57 2.64,6.635 1.343,2.064 3.134,3.819 5.38,5.265 1.807,1.163 3.694,1.991 5.661,2.483 1.967,0.492 3.949,0.664 5.94,0.514 0.274,0.006 0.492,0.051 0.703,0.1 l -0.323,-4.3 c -0.352,-4.678 2.865,-6.94 7.148,-5.027 l 22.444,10.023 c 0.742,0.332 1.319,0.728 1.82,1.149 0.221,0.186 0.464,0.366 0.638,0.565 0.006,0.007 0.008,0.015 0.014,0.022 1.676,1.946 1.087,4.454 -1.864,6.346 l -20.692,13.268 c -3.949,2.532 -7.468,0.776 -7.82,-3.902 l -0.06,-0.792 c -0.114,0.139 -0.212,0.298 -0.365,0.39 -0.501,0.296 -1.073,0.432 -1.714,0.406 -3.684,0.069 -7.279,-0.378 -10.785,-1.338 -3.505,-0.961 -6.902,-2.498 -10.186,-4.613 -2.901,-1.867 -5.444,-4.038 -7.63,-6.508 -2.183,-2.47 -4.003,-5.133 -5.459,-7.986 -1.452,-2.852 -2.515,-5.85 -3.184,-8.991 -0.669,-3.142 -0.934,-6.322 -0.796,-9.544 0.139,-3.222 0.697,-6.406 1.676,-9.55 0.979,-3.145 2.403,-6.168 4.271,-9.069 1.869,-2.902 4.031,-5.45 6.489,-7.643 2.456,-2.193 5.114,-4.006 7.972,-5.438 2.858,-1.432 5.85,-2.488 8.979,-3.165 3.127,-0.677 6.295,-0.95 9.502,-0.822 3.209,0.129 6.386,0.685 9.529,1.662 3.146,0.981 6.169,2.404 9.071,4.272 3.284,2.114 6.107,4.6 8.47,7.457 2.363,2.858 4.275,5.977 5.738,9.357 0.289,0.573 0.411,1.136 0.366,1.688 C 1.056,-0.888 0.689,-0.409 0,0" /></g><path
           id="path80"
           style="fill:#ffffff;fill-opacity:1;fill-rule:nonzero;stroke:none"
           d="m 244.81,112.233 h 108.158 v 73.445 H 244.81 Z" /><path
           id="path82"
           style="fill:#254aa5;fill-opacity:1;fill-rule:nonzero;stroke:none"
           d="m 246.89,114.331 h 103.998 v 69.332 H 246.89 Z" /><g
           transform="translate(296.6724,168.5572)"
           id="g84"><path
             id="path86"
             style="fill:#f3ef13;fill-opacity:1;fill-rule:nonzero;stroke:none"
             d="M 0,0 2.194,1.601 4.389,0 3.554,2.59 5.783,4.191 H 3.035 L 2.194,6.813 1.354,4.188 -1.392,4.191 0.835,2.59 Z" /></g><g
           transform="translate(285.316,165.5061)"
           id="g88"><path
             id="path90"
             style="fill:#f3ef13;fill-opacity:1;fill-rule:nonzero;stroke:none"
             d="M 0,0 2.194,1.601 4.388,0 3.554,2.59 5.781,4.191 H 3.034 L 2.193,6.816 1.352,4.188 -1.394,4.191 0.834,2.59 Z" /></g><g
           transform="translate(279.2008,163.9934)"
           id="g92"><path
             id="path94"
             style="fill:#f3ef13;fill-opacity:1;fill-rule:nonzero;stroke:none"
             d="M 0,0 -0.841,-2.627 -3.587,-2.624 -1.359,-4.225 -2.194,-6.816 0,-5.214 2.194,-6.816 1.359,-4.225 3.587,-2.624 H 0.841 Z" /></g><g
           transform="translate(276.153,147.4371)"
           id="g96"><path
             id="path98"
             style="fill:#f3ef13;fill-opacity:1;fill-rule:nonzero;stroke:none"
             d="M 0,0 2.193,-1.601 1.359,0.988 3.587,2.59 H 0.841 L 0,5.214 -0.841,2.584 -3.588,2.59 -1.359,0.988 -2.195,-1.601 Z" /></g><g
           transform="translate(280.0417,138.6508)"
           id="g100"><path
             id="path102"
             style="fill:#f3ef13;fill-opacity:1;fill-rule:nonzero;stroke:none"
             d="M 0,0 -0.841,2.624 -1.682,-0.003 -4.428,0 -2.2,-1.601 -3.035,-4.191 -0.841,-2.587 1.354,-4.191 0.519,-1.601 2.746,0 Z" /></g><g
           transform="translate(288.3669,130.3259)"
           id="g104"><path
             id="path106"
             style="fill:#f3ef13;fill-opacity:1;fill-rule:nonzero;stroke:none"
             d="M 0,0 -0.841,2.621 -1.68,-0.003 -4.428,0 -2.2,-1.602 -3.034,-4.192 -0.839,-2.59 1.354,-4.192 0.52,-1.602 2.747,0 Z" /></g><g
           transform="translate(299.7091,127.3087)"
           id="g108"><path
             id="path110"
             style="fill:#f3ef13;fill-opacity:1;fill-rule:nonzero;stroke:none"
             d="M 0,0 -0.841,2.624 -1.68,-0.003 -4.428,0 -2.2,-1.601 -3.034,-4.191 -0.839,-2.59 1.354,-4.191 0.519,-1.601 2.747,0 Z" /></g><g
           transform="translate(311.0512,130.3259)"
           id="g112"><path
             id="path114"
             style="fill:#f3ef13;fill-opacity:1;fill-rule:nonzero;stroke:none"
             d="M 0,0 -0.839,2.621 -1.682,-0.003 -4.426,0 -2.2,-1.602 -3.034,-4.192 -0.839,-2.59 1.355,-4.192 0.519,-1.602 2.747,0 Z" /></g><g
           transform="translate(319.3795,138.6508)"
           id="g116"><path
             id="path118"
             style="fill:#f3ef13;fill-opacity:1;fill-rule:nonzero;stroke:none"
             d="M 0,0 -0.842,2.624 -1.685,-0.003 -4.429,0 -2.2,-1.601 -3.036,-4.191 -0.842,-2.587 1.352,-4.191 0.516,-1.601 2.744,0 Z" /></g><g
           transform="translate(325.1411,150.0586)"
           id="g120"><path
             id="path122"
             style="fill:#f3ef13;fill-opacity:1;fill-rule:nonzero;stroke:none"
             d="M 0,0 H -2.747 L -3.59,2.624 -4.429,-0.003 -7.177,0 l 2.229,-1.601 -0.834,-2.59 2.192,1.604 2.194,-1.604 -0.833,2.59 z" /></g><g
           transform="translate(316.3428,157.2125)"
           id="g124"><path
             id="path126"
             style="fill:#f3ef13;fill-opacity:1;fill-rule:nonzero;stroke:none"
             d="M 0,0 2.194,1.601 4.389,0 3.552,2.59 5.781,4.188 H 3.036 L 2.194,6.813 1.352,4.185 -1.392,4.188 0.836,2.59 Z" /></g><g
           transform="translate(310.2438,172.3188)"
           id="g128"><path
             id="path130"
             style="fill:#f3ef13;fill-opacity:1;fill-rule:nonzero;stroke:none"
             d="m 0,0 -0.839,-2.627 -2.748,0.006 2.226,-1.604 -0.834,-2.591 2.198,1.605 2.191,-1.605 -0.833,2.591 2.228,1.604 h -2.75 z" /></g><g
           transform="translate(376.7862,163.5947)"
           id="g132"><path
             id="path134"
             style="fill:#254aa5;fill-opacity:1;fill-rule:nonzero;stroke:none"
             d="M 0,0 3.34,-1.059 C 2.828,-2.921 1.976,-4.304 0.785,-5.208 c -1.191,-0.905 -2.702,-1.356 -4.533,-1.356 -2.266,0 -4.128,0.774 -5.586,2.321 -1.459,1.549 -2.189,3.665 -2.189,6.349 0,2.84 0.734,5.046 2.2,6.617 1.467,1.571 3.395,2.357 5.785,2.357 2.087,0 3.782,-0.617 5.085,-1.851 C 2.323,8.5 2.905,7.452 3.293,6.087 l -3.41,-0.815 c -0.202,0.885 -0.622,1.583 -1.263,2.095 -0.639,0.512 -1.418,0.768 -2.333,0.768 -1.265,0 -2.291,-0.454 -3.078,-1.362 -0.788,-0.907 -1.182,-2.378 -1.182,-4.411 0,-2.157 0.388,-3.693 1.164,-4.608 0.776,-0.916 1.784,-1.374 3.026,-1.374 0.915,0 1.703,0.291 2.363,0.873 C -0.761,-2.165 -0.288,-1.249 0,0" /></g><g
           transform="translate(385.6545,163.5016)"
           id="g136"><path
             id="path138"
             style="fill:#254aa5;fill-opacity:1;fill-rule:nonzero;stroke:none"
             d="m 0,0 c 0,-1.226 0.291,-2.165 0.873,-2.817 0.582,-0.652 1.299,-0.978 2.153,-0.978 0.853,0 1.569,0.326 2.147,0.978 0.578,0.652 0.867,1.599 0.867,2.84 0,1.21 -0.289,2.141 -0.867,2.793 C 4.595,3.468 3.879,3.794 3.026,3.794 2.172,3.794 1.455,3.468 0.873,2.816 0.291,2.164 0,1.226 0,0 m -3.352,0.174 c 0,1.087 0.268,2.138 0.803,3.154 0.535,1.017 1.294,1.793 2.275,2.328 0.982,0.536 2.078,0.803 3.288,0.803 1.87,0 3.403,-0.607 4.598,-1.821 1.194,-1.214 1.792,-2.749 1.792,-4.603 0,-1.87 -0.603,-3.42 -1.81,-4.65 -1.206,-1.23 -2.725,-1.845 -4.556,-1.845 -1.133,0 -2.214,0.256 -3.242,0.769 -1.028,0.512 -1.81,1.262 -2.345,2.252 -0.535,0.989 -0.803,2.193 -0.803,3.613" /></g><path
           id="path140"
           style="fill:#254aa5;fill-opacity:1;fill-rule:nonzero;stroke:none"
           d="m 397.247,165.142 h 6.424 v -3.27 h -6.424 z" /><g
           transform="translate(404.1246,169.6815)"
           id="g142"><path
             id="path144"
             style="fill:#254aa5;fill-opacity:1;fill-rule:nonzero;stroke:none"
             d="m 0,0 h 1.816 v 0.931 c 0,1.04 0.11,1.816 0.331,2.328 0.222,0.512 0.629,0.929 1.223,1.251 0.593,0.322 1.344,0.483 2.252,0.483 0.931,0 1.842,-0.14 2.734,-0.419 L 7.914,2.293 C 7.394,2.417 6.894,2.479 6.413,2.479 5.94,2.479 5.6,2.368 5.395,2.147 5.189,1.926 5.086,1.502 5.086,0.873 V 0 H 7.531 V -2.572 H 5.086 v -9.788 h -3.27 v 9.788 l -1.816,0 z" /></g><g
           transform="translate(421.6293,157.3214)"
           id="g146"><path
             id="path148"
             style="fill:#254aa5;fill-opacity:1;fill-rule:nonzero;stroke:none"
             d="m 0,0 v 1.851 c -0.45,-0.66 -1.042,-1.18 -1.775,-1.56 -0.733,-0.38 -1.507,-0.57 -2.322,-0.57 -0.83,0 -1.575,0.182 -2.235,0.547 -0.659,0.364 -1.136,0.877 -1.431,1.536 -0.295,0.659 -0.442,1.571 -0.442,2.735 v 7.821 h 3.27 V 6.681 c 0,-1.739 0.06,-2.803 0.181,-3.195 0.12,-0.392 0.339,-0.702 0.657,-0.931 0.318,-0.229 0.722,-0.344 1.211,-0.344 0.558,0 1.058,0.154 1.501,0.46 0.442,0.306 0.745,0.687 0.908,1.141 0.163,0.453 0.244,1.565 0.244,3.334 V 12.36 H 3.038 L 3.038,0 Z" /></g><g
           transform="translate(439.2959,157.3214)"
           id="g150"><path
             id="path152"
             style="fill:#254aa5;fill-opacity:1;fill-rule:nonzero;stroke:none"
             d="m 0,0 h -3.27 v 6.308 c 0,1.334 -0.07,2.198 -0.21,2.59 -0.139,0.391 -0.366,0.696 -0.68,0.913 -0.315,0.217 -0.693,0.326 -1.135,0.326 -0.567,0 -1.075,-0.155 -1.525,-0.465 C -7.27,9.361 -7.579,8.95 -7.745,8.438 -7.912,7.926 -7.995,6.979 -7.995,5.598 V 0 h -3.271 v 12.36 h 3.038 v -1.815 c 1.078,1.396 2.436,2.094 4.073,2.094 0.722,0 1.381,-0.13 1.979,-0.39 0.597,-0.26 1.049,-0.591 1.356,-0.994 0.306,-0.404 0.52,-0.862 0.64,-1.374 C -0.06,9.369 0,8.636 0,7.681 Z" /></g><g
           transform="translate(445.2208,163.7691)"
           id="g154"><path
             id="path156"
             style="fill:#254aa5;fill-opacity:1;fill-rule:nonzero;stroke:none"
             d="m 0,0 c 0,-1.319 0.182,-2.274 0.547,-2.863 0.527,-0.854 1.264,-1.28 2.211,-1.28 0.752,0 1.393,0.32 1.92,0.96 0.528,0.64 0.792,1.596 0.792,2.869 0,1.419 -0.256,2.442 -0.768,3.066 C 4.19,3.377 3.534,3.69 2.735,3.69 1.959,3.69 1.309,3.381 0.785,2.764 0.262,2.147 0,1.226 0,0 M 8.728,-6.448 H 5.691 v 1.816 C 5.186,-5.338 4.591,-5.864 3.904,-6.209 3.218,-6.554 2.525,-6.727 1.827,-6.727 c -1.42,0 -2.636,0.572 -3.649,1.717 -1.012,1.144 -1.519,2.741 -1.519,4.789 0,2.095 0.493,3.687 1.479,4.778 0.985,1.09 2.23,1.635 3.736,1.635 1.381,0 2.576,-0.575 3.584,-1.723 v 6.145 h 3.27 z" /></g><g
           transform="translate(464.5175,164.5605)"
           id="g158"><path
             id="path160"
             style="fill:#254aa5;fill-opacity:1;fill-rule:nonzero;stroke:none"
             d="m 0,0 c -0.023,0.947 -0.268,1.666 -0.733,2.159 -0.466,0.492 -1.032,0.739 -1.7,0.739 -0.713,0 -1.303,-0.26 -1.769,-0.78 C -4.667,1.598 -4.896,0.892 -4.888,0 Z m -0.186,-3.305 3.259,-0.547 c -0.42,-1.195 -1.081,-2.105 -1.985,-2.73 -0.904,-0.624 -2.035,-0.936 -3.392,-0.936 -2.15,0 -3.741,0.702 -4.772,2.106 -0.815,1.125 -1.223,2.545 -1.223,4.26 0,2.048 0.536,3.652 1.607,4.812 1.071,1.16 2.424,1.74 4.062,1.74 1.839,0 3.289,-0.607 4.352,-1.821 1.063,-1.214 1.571,-3.075 1.525,-5.581 h -8.193 c 0.023,-0.97 0.287,-1.724 0.791,-2.263 0.504,-0.54 1.133,-0.809 1.885,-0.809 0.513,0 0.943,0.139 1.292,0.419 0.349,0.279 0.613,0.729 0.792,1.35" /></g><g
           transform="translate(473.0367,163.7691)"
           id="g162"><path
             id="path164"
             style="fill:#254aa5;fill-opacity:1;fill-rule:nonzero;stroke:none"
             d="m 0,0 c 0,-1.319 0.182,-2.274 0.547,-2.863 0.527,-0.854 1.264,-1.28 2.211,-1.28 0.752,0 1.393,0.32 1.92,0.96 0.528,0.64 0.792,1.596 0.792,2.869 0,1.419 -0.256,2.442 -0.768,3.066 C 4.19,3.377 3.534,3.69 2.735,3.69 1.959,3.69 1.309,3.381 0.785,2.764 0.262,2.147 0,1.226 0,0 M 8.729,-6.448 H 5.691 v 1.816 C 5.187,-5.338 4.591,-5.864 3.905,-6.209 3.218,-6.554 2.525,-6.727 1.827,-6.727 c -1.42,0 -2.636,0.572 -3.649,1.717 -1.012,1.144 -1.518,2.741 -1.518,4.789 0,2.095 0.493,3.687 1.478,4.778 0.985,1.09 2.23,1.635 3.736,1.635 1.38,0 2.576,-0.575 3.584,-1.723 v 6.145 h 3.271 z" /></g><g
           transform="translate(494.7192,163.7691)"
           id="g166"><path
             id="path168"
             style="fill:#254aa5;fill-opacity:1;fill-rule:nonzero;stroke:none"
             d="m 0,0 c 0,-1.28 0.202,-2.227 0.605,-2.84 0.566,-0.869 1.319,-1.303 2.258,-1.303 0.722,0 1.336,0.308 1.845,0.925 0.508,0.617 0.762,1.589 0.762,2.915 0,1.412 -0.256,2.431 -0.768,3.055 C 4.19,3.377 3.534,3.69 2.735,3.69 1.951,3.69 1.3,3.385 0.78,2.776 0.26,2.167 0,1.241 0,0 m -3.247,-6.448 v 17.062 h 3.27 V 4.469 C 1.032,5.617 2.227,6.192 3.608,6.192 5.113,6.192 6.359,5.647 7.344,4.557 8.329,3.466 8.822,1.901 8.822,-0.14 8.822,-2.25 8.32,-3.876 7.315,-5.016 6.31,-6.157 5.09,-6.727 3.655,-6.727 c -0.707,0 -1.403,0.176 -2.09,0.53 -0.686,0.352 -1.278,0.874 -1.774,1.565 v -1.816 z" /></g><g
           transform="translate(504.6234,169.6815)"
           id="g170"><path
             id="path172"
             style="fill:#254aa5;fill-opacity:1;fill-rule:nonzero;stroke:none"
             d="M 0,0 H 3.48 L 6.436,-8.775 9.323,0 h 3.386 l -4.364,-11.895 -0.78,-2.153 c -0.287,-0.722 -0.561,-1.272 -0.82,-1.653 -0.26,-0.38 -0.559,-0.688 -0.897,-0.925 -0.337,-0.236 -0.753,-0.42 -1.245,-0.552 -0.493,-0.132 -1.05,-0.199 -1.67,-0.199 -0.629,0 -1.245,0.067 -1.85,0.199 l -0.292,2.56 c 0.513,-0.101 0.974,-0.152 1.385,-0.152 0.761,0 1.323,0.224 1.688,0.67 0.364,0.446 0.644,1.014 0.838,1.705 z" /></g><g
           transform="translate(371.5137,141.0788)"
           id="g174"><path
             id="path176"
             style="fill:#254aa5;fill-opacity:1;fill-rule:nonzero;stroke:none"
             d="m 0,0 v -2.607 h -2.235 v -4.981 c 0,-1.009 0.022,-1.597 0.064,-1.764 0.043,-0.167 0.14,-0.304 0.291,-0.413 0.152,-0.108 0.336,-0.163 0.553,-0.163 0.303,0 0.741,0.105 1.315,0.314 l 0.279,-2.537 c -0.76,-0.326 -1.621,-0.489 -2.583,-0.489 -0.59,0 -1.121,0.099 -1.595,0.297 -0.473,0.198 -0.82,0.454 -1.041,0.768 -0.221,0.315 -0.375,0.74 -0.46,1.275 -0.07,0.38 -0.105,1.148 -0.105,2.304 v 5.389 H -7.018 V 0 h 1.501 v 2.455 l 3.282,1.909 0,-4.364 z" /></g><g
           transform="translate(377.0421,145.7807)"
           id="g178"><path
             id="path180"
             style="fill:#254aa5;fill-opacity:1;fill-rule:nonzero;stroke:none"
             d="m 0,0 v -6.273 c 1.055,1.233 2.316,1.851 3.782,1.851 0.753,0 1.432,-0.14 2.037,-0.42 0.605,-0.279 1.061,-0.636 1.368,-1.07 0.306,-0.435 0.516,-0.916 0.628,-1.443 0.112,-0.528 0.169,-1.347 0.169,-2.456 v -7.251 H 4.713 v 6.529 c 0,1.296 -0.062,2.119 -0.186,2.467 -0.124,0.35 -0.343,0.627 -0.657,0.833 -0.315,0.205 -0.709,0.308 -1.182,0.308 -0.543,0 -1.028,-0.132 -1.455,-0.396 C 0.807,-7.584 0.494,-7.982 0.296,-8.514 0.099,-9.045 0,-9.831 0,-10.87 v -6.192 H -3.271 V 0 Z" /></g><g
           transform="translate(395.6868,135.9578)"
           id="g182"><path
             id="path184"
             style="fill:#254aa5;fill-opacity:1;fill-rule:nonzero;stroke:none"
             d="m 0,0 c -0.023,0.946 -0.268,1.666 -0.733,2.159 -0.466,0.493 -1.032,0.739 -1.7,0.739 -0.713,0 -1.303,-0.26 -1.769,-0.78 C -4.667,1.598 -4.896,0.892 -4.888,0 Z m -0.186,-3.305 3.259,-0.547 c -0.42,-1.195 -1.081,-2.105 -1.985,-2.73 -0.904,-0.624 -2.035,-0.937 -3.393,-0.937 -2.149,0 -3.74,0.703 -4.771,2.107 -0.815,1.125 -1.223,2.545 -1.223,4.26 0,2.048 0.536,3.652 1.607,4.812 1.071,1.16 2.424,1.74 4.062,1.74 1.838,0 3.289,-0.607 4.352,-1.821 1.063,-1.214 1.571,-3.075 1.525,-5.581 h -8.194 c 0.024,-0.97 0.288,-1.724 0.792,-2.263 0.504,-0.54 1.133,-0.809 1.885,-0.809 0.513,0 0.943,0.139 1.292,0.419 0.349,0.279 0.613,0.729 0.792,1.35" /></g><g
           transform="translate(408.2446,128.7187)"
           id="g186"><path
             id="path188"
             style="fill:#254aa5;fill-opacity:1;fill-rule:nonzero;stroke:none"
             d="M 0,0 V 17.062 H 12.651 V 14.176 H 3.445 v -3.783 h 8.566 V 7.519 H 3.445 V 2.875 h 9.532 V 0 Z" /></g><g
           transform="translate(432.2552,128.7187)"
           id="g190"><path
             id="path192"
             style="fill:#254aa5;fill-opacity:1;fill-rule:nonzero;stroke:none"
             d="m 0,0 v 1.851 c -0.45,-0.66 -1.042,-1.18 -1.775,-1.56 -0.733,-0.38 -1.507,-0.57 -2.322,-0.57 -0.83,0 -1.575,0.182 -2.234,0.547 -0.66,0.364 -1.137,0.876 -1.432,1.536 -0.295,0.66 -0.442,1.571 -0.442,2.735 v 7.821 h 3.27 V 6.681 c 0,-1.739 0.06,-2.803 0.181,-3.195 0.12,-0.393 0.339,-0.702 0.657,-0.931 0.318,-0.229 0.722,-0.344 1.211,-0.344 0.559,0 1.059,0.154 1.501,0.46 0.442,0.306 0.745,0.687 0.908,1.141 0.163,0.453 0.244,1.565 0.244,3.334 V 12.36 H 3.038 V 0 Z" /></g><g
           transform="translate(441.8104,128.7187)"
           id="g194"><path
             id="path196"
             style="fill:#254aa5;fill-opacity:1;fill-rule:nonzero;stroke:none"
             d="m 0,0 h -3.27 v 12.36 h 3.037 v -1.757 c 0.52,0.83 0.988,1.377 1.402,1.641 0.416,0.263 0.887,0.396 1.415,0.396 0.745,0 1.462,-0.206 2.153,-0.618 L 3.724,9.171 C 3.173,9.528 2.661,9.707 2.188,9.707 1.73,9.707 1.342,9.58 1.024,9.328 0.706,9.076 0.456,8.62 0.274,7.961 0.091,7.301 0,5.92 0,3.817 Z" /></g><g
           transform="translate(450.5512,134.8987)"
           id="g198"><path
             id="path200"
             style="fill:#254aa5;fill-opacity:1;fill-rule:nonzero;stroke:none"
             d="m 0,0 c 0,-1.226 0.291,-2.165 0.873,-2.817 0.582,-0.652 1.299,-0.977 2.153,-0.977 0.853,0 1.569,0.325 2.147,0.977 0.578,0.652 0.867,1.599 0.867,2.84 0,1.211 -0.289,2.142 -0.867,2.793 C 4.595,3.468 3.879,3.794 3.026,3.794 2.172,3.794 1.455,3.468 0.873,2.816 0.291,2.165 0,1.226 0,0 m -3.352,0.175 c 0,1.086 0.268,2.137 0.803,3.154 0.535,1.016 1.294,1.792 2.275,2.327 0.982,0.536 2.078,0.803 3.288,0.803 1.87,0 3.403,-0.607 4.598,-1.821 1.194,-1.214 1.792,-2.749 1.792,-4.603 0,-1.87 -0.603,-3.42 -1.81,-4.65 -1.206,-1.23 -2.725,-1.844 -4.556,-1.844 -1.133,0 -2.214,0.255 -3.242,0.768 -1.028,0.512 -1.81,1.262 -2.345,2.252 -0.535,0.989 -0.803,2.194 -0.803,3.614" /></g><g
           transform="translate(465.6575,135.1081)"
           id="g202"><path
             id="path204"
             style="fill:#254aa5;fill-opacity:1;fill-rule:nonzero;stroke:none"
             d="m 0,0 c 0,-1.389 0.275,-2.415 0.827,-3.078 0.55,-0.663 1.221,-0.995 2.013,-0.995 0.761,0 1.392,0.304 1.897,0.913 0.504,0.609 0.757,1.608 0.757,2.997 0,1.296 -0.26,2.258 -0.78,2.887 C 4.194,3.352 3.55,3.666 2.782,3.666 1.982,3.666 1.319,3.358 0.791,2.741 0.264,2.124 0,1.21 0,0 m -3.235,5.971 h 3.049 V 4.155 C 0.21,4.776 0.745,5.28 1.42,5.668 2.095,6.056 2.844,6.25 3.666,6.25 5.102,6.25 6.32,5.687 7.321,4.562 8.322,3.437 8.823,1.87 8.823,-0.14 8.823,-2.204 8.318,-3.808 7.309,-4.952 6.301,-6.096 5.078,-6.669 3.643,-6.669 c -0.683,0 -1.302,0.136 -1.856,0.408 -0.555,0.271 -1.139,0.737 -1.752,1.396 v -6.226 h -3.27 z" /></g><g
           transform="translate(484.4189,135.9578)"
           id="g206"><path
             id="path208"
             style="fill:#254aa5;fill-opacity:1;fill-rule:nonzero;stroke:none"
             d="m 0,0 c -0.023,0.946 -0.267,1.666 -0.733,2.159 -0.465,0.493 -1.032,0.739 -1.7,0.739 -0.713,0 -1.303,-0.26 -1.769,-0.78 C -4.667,1.598 -4.896,0.892 -4.888,0 Z M -0.186,-3.305 3.073,-3.852 C 2.654,-5.047 1.992,-5.957 1.088,-6.582 0.184,-7.206 -0.947,-7.519 -2.304,-7.519 c -2.15,0 -3.74,0.703 -4.772,2.107 -0.815,1.125 -1.223,2.545 -1.223,4.26 0,2.048 0.536,3.652 1.607,4.812 1.071,1.16 2.425,1.74 4.062,1.74 1.839,0 3.289,-0.607 4.353,-1.821 1.062,-1.214 1.571,-3.075 1.524,-5.581 h -8.194 c 0.024,-0.97 0.288,-1.724 0.792,-2.263 0.504,-0.54 1.133,-0.809 1.886,-0.809 0.512,0 0.942,0.139 1.291,0.419 0.349,0.279 0.613,0.729 0.792,1.35" /></g><g
           transform="translate(497.1515,134.6541)"
           id="g210"><path
             id="path212"
             style="fill:#254aa5;fill-opacity:1;fill-rule:nonzero;stroke:none"
             d="m 0,0 c -0.419,-0.139 -1.082,-0.307 -1.99,-0.5 -0.908,-0.194 -1.502,-0.384 -1.781,-0.571 -0.426,-0.302 -0.64,-0.686 -0.64,-1.152 0,-0.458 0.17,-0.853 0.512,-1.187 0.342,-0.334 0.776,-0.501 1.304,-0.501 0.589,0 1.152,0.194 1.687,0.582 0.396,0.295 0.656,0.656 0.78,1.083 C -0.043,-1.967 0,-1.436 0,-0.652 Z m -4.376,2.654 -2.968,0.535 c 0.334,1.195 0.908,2.079 1.723,2.654 0.815,0.574 2.025,0.861 3.631,0.861 1.459,0 2.545,-0.173 3.259,-0.518 C 1.982,5.84 2.485,5.402 2.776,4.871 3.067,4.339 3.212,3.364 3.212,1.944 L 3.177,-1.874 c 0,-1.086 0.053,-1.887 0.158,-2.403 0.104,-0.516 0.3,-1.069 0.587,-1.658 H 0.687 c -0.086,0.217 -0.19,0.539 -0.314,0.966 -0.055,0.193 -0.094,0.321 -0.117,0.384 -0.558,-0.544 -1.156,-0.951 -1.792,-1.222 -0.636,-0.272 -1.315,-0.408 -2.037,-0.408 -1.273,0 -2.275,0.346 -3.008,1.036 -0.734,0.691 -1.1,1.563 -1.1,2.619 0,0.698 0.167,1.321 0.5,1.868 0.334,0.547 0.801,0.966 1.402,1.256 0.602,0.292 1.469,0.546 2.602,0.763 C -1.649,1.614 -0.589,1.882 0,2.13 V 2.456 C 0,3.085 -0.155,3.532 -0.466,3.8 -0.776,4.068 -1.362,4.202 -2.223,4.202 -2.805,4.202 -3.259,4.087 -3.585,3.858 -3.911,3.629 -4.174,3.228 -4.376,2.654" /></g><g
           transform="translate(514.8307,128.7187)"
           id="g214"><path
             id="path216"
             style="fill:#254aa5;fill-opacity:1;fill-rule:nonzero;stroke:none"
             d="m 0,0 h -3.27 v 6.308 c 0,1.334 -0.07,2.198 -0.21,2.59 -0.139,0.391 -0.366,0.696 -0.681,0.914 -0.314,0.217 -0.692,0.325 -1.135,0.325 -0.566,0 -1.074,-0.155 -1.524,-0.465 C -7.27,9.361 -7.579,8.95 -7.745,8.438 -7.912,7.926 -7.996,6.979 -7.996,5.598 V 0 h -3.27 v 12.36 h 3.037 v -1.815 c 1.079,1.396 2.437,2.095 4.074,2.095 0.722,0 1.381,-0.131 1.979,-0.391 0.597,-0.26 1.049,-0.591 1.356,-0.994 0.306,-0.404 0.52,-0.862 0.64,-1.374 C -0.06,9.369 0,8.636 0,7.681 Z" /></g><g
           transform="translate(524.7701,145.7807)"
           id="g218"><path
             id="path220"
             style="fill:#254aa5;fill-opacity:1;fill-rule:nonzero;stroke:none"
             d="m 0,0 h 3.445 v -9.241 c 0,-1.466 0.042,-2.417 0.128,-2.851 0.147,-0.699 0.499,-1.259 1.053,-1.682 0.555,-0.423 1.314,-0.635 2.276,-0.635 0.977,0 1.714,0.2 2.211,0.6 0.496,0.399 0.795,0.89 0.896,1.472 0.101,0.582 0.151,1.548 0.151,2.898 V 0 h 3.445 v -8.962 c 0,-2.048 -0.093,-3.495 -0.279,-4.341 -0.186,-0.846 -0.529,-1.56 -1.03,-2.141 -0.501,-0.582 -1.169,-1.046 -2.007,-1.391 -0.838,-0.345 -1.933,-0.518 -3.283,-0.518 -1.629,0 -2.865,0.188 -3.707,0.565 -0.841,0.375 -1.507,0.864 -1.995,1.466 -0.49,0.601 -0.811,1.231 -0.967,1.891 C 0.112,-12.453 0,-11.01 0,-9.101 Z" /></g><g
           transform="translate(553.226,128.7187)"
           id="g222"><path
             id="path224"
             style="fill:#254aa5;fill-opacity:1;fill-rule:nonzero;stroke:none"
             d="m 0,0 h -3.27 v 6.308 c 0,1.334 -0.07,2.198 -0.21,2.59 -0.139,0.391 -0.366,0.696 -0.681,0.914 -0.314,0.217 -0.692,0.325 -1.134,0.325 -0.567,0 -1.075,-0.155 -1.525,-0.465 C -7.27,9.361 -7.579,8.95 -7.745,8.438 -7.912,7.926 -7.996,6.979 -7.996,5.598 V 0 h -3.27 v 12.36 h 3.038 v -1.815 c 1.078,1.396 2.436,2.095 4.073,2.095 0.722,0 1.381,-0.131 1.979,-0.391 0.597,-0.26 1.049,-0.591 1.356,-0.994 0.306,-0.404 0.52,-0.862 0.64,-1.374 C -0.06,9.369 0,8.636 0,7.681 Z" /></g><path
           id="path226"
           style="fill:#254aa5;fill-opacity:1;fill-rule:nonzero;stroke:none"
           d="m 556.543,141.079 h 3.27 v -12.36 h -3.27 z m 0,4.702 h 3.27 v -3.026 h -3.27 z" /><g
           transform="translate(565.761,134.8987)"
           id="g228"><path
             id="path230"
             style="fill:#254aa5;fill-opacity:1;fill-rule:nonzero;stroke:none"
             d="m 0,0 c 0,-1.226 0.291,-2.165 0.872,-2.817 0.583,-0.652 1.3,-0.977 2.154,-0.977 0.853,0 1.569,0.325 2.147,0.977 0.578,0.652 0.867,1.599 0.867,2.84 0,1.211 -0.289,2.142 -0.867,2.793 C 4.595,3.468 3.879,3.794 3.026,3.794 2.172,3.794 1.455,3.468 0.872,2.816 0.291,2.165 0,1.226 0,0 m -3.352,0.175 c 0,1.086 0.267,2.137 0.803,3.154 0.535,1.016 1.294,1.792 2.275,2.327 0.982,0.536 2.078,0.803 3.288,0.803 1.87,0 3.403,-0.607 4.597,-1.821 1.195,-1.214 1.793,-2.749 1.793,-4.603 0,-1.87 -0.603,-3.42 -1.81,-4.65 -1.206,-1.23 -2.725,-1.844 -4.556,-1.844 -1.133,0 -2.214,0.255 -3.242,0.768 -1.028,0.512 -1.81,1.262 -2.345,2.252 -0.536,0.989 -0.803,2.194 -0.803,3.614" /></g><g
           transform="translate(588.9679,128.7187)"
           id="g232"><path
             id="path234"
             style="fill:#254aa5;fill-opacity:1;fill-rule:nonzero;stroke:none"
             d="m 0,0 h -3.27 v 6.308 c 0,1.334 -0.07,2.198 -0.21,2.59 -0.139,0.391 -0.366,0.696 -0.681,0.914 -0.314,0.217 -0.692,0.325 -1.135,0.325 -0.566,0 -1.074,-0.155 -1.524,-0.465 C -7.27,9.361 -7.579,8.95 -7.745,8.438 -7.912,7.926 -7.996,6.979 -7.996,5.598 V 0 h -3.27 v 12.36 h 3.037 v -1.815 c 1.079,1.396 2.437,2.095 4.074,2.095 0.722,0 1.381,-0.131 1.979,-0.391 0.597,-0.26 1.049,-0.591 1.355,-0.994 0.307,-0.404 0.52,-0.862 0.641,-1.374 C -0.06,9.369 0,8.636 0,7.681 Z" /></g></g></g></g></svg>